<svg xmlns="http://www.w3.org/2000/svg" width="1595" height="612" viewBox="0 0 1595 612" aria-label="DFT Agent logo: a robot mascot with a hexagonal head and an atom for an antenna, beside the name DFT Agent"><defs><linearGradient id="dfaRing" x1="0" y1="0" x2="0" y2="1"><stop offset="0" stop-color="#FFD67A"/><stop offset=".5" stop-color="#FFA62B"/><stop offset="1" stop-color="#F26A0D"/></linearGradient><linearGradient id="dfaRim" x1="0" y1="0" x2="0" y2="1"><stop offset="0" stop-color="#F4E8D7"/><stop offset="1" stop-color="#C4AC8E"/></linearGradient><linearGradient id="dfaFace" x1="0" y1="0" x2="0" y2="1"><stop offset="0" stop-color="#FFFEFA"/><stop offset=".55" stop-color="#FAF1E3"/><stop offset="1" stop-color="#EBDBC5"/></linearGradient><linearGradient id="dfaBezel" x1="0" y1="0" x2="0" y2="1"><stop offset="0" stop-color="#4A4E5A"/><stop offset="1" stop-color="#191B21"/></linearGradient><linearGradient id="dfaVisor" x1="0" y1="0" x2="0" y2="1"><stop offset="0" stop-color="#2A2D37"/><stop offset="1" stop-color="#0B0C11"/></linearGradient><radialGradient id="dfaEye" cx=".4" cy=".34" r=".75"><stop offset="0" stop-color="#FFF4C8"/><stop offset=".42" stop-color="#FFC045"/><stop offset="1" stop-color="#FF8410"/></radialGradient><linearGradient id="dfaOrbit" x1="0" y1="0" x2="1" y2="0"><stop offset="0" stop-color="#F26A0D"/><stop offset="1" stop-color="#FFD67A"/></linearGradient><linearGradient id="dfaEar" x1="0" y1="0" x2="0" y2="1"><stop offset="0" stop-color="#F1E5D3"/><stop offset="1" stop-color="#B8A083"/></linearGradient><filter id="dfaGlow" x="-100%" y="-100%" width="300%" height="300%"><feGaussianBlur stdDeviation="10.72"/></filter><filter id="dfaHalo" x="-50%" y="-50%" width="200%" height="200%"><feGaussianBlur stdDeviation="21.45"/></filter><filter id="dfaSoft" x="-50%" y="-50%" width="200%" height="200%"><feGaussianBlur stdDeviation="4.88"/></filter><linearGradient id="dfaWord" gradientUnits="userSpaceOnUse" x1="0" y1="286.96" x2="0" y2="453.36"><stop offset="0" stop-color="#FFC65C"/><stop offset=".55" stop-color="#FFA62B"/><stop offset="1" stop-color="#F9801A"/></linearGradient><linearGradient id="dfaIvory" gradientUnits="userSpaceOnUse" x1="0" y1="286.96" x2="0" y2="426.96"><stop offset="0" stop-color="#FFFDF8"/><stop offset="1" stop-color="#F1E3CE"/></linearGradient></defs><path d="M227.12 178.29A56.55 56.55 0 0 1 283.67 178.29L395.99 243.14A56.55 56.55 0 0 1 424.27 292.11L424.27 421.81A56.55 56.55 0 0 1 395.99 470.79L283.67 535.64A56.55 56.55 0 0 1 227.12 535.64L114.79 470.79A56.55 56.55 0 0 1 86.52 421.81L86.52 292.11A56.55 56.55 0 0 1 114.79 243.14Z" fill="#FF8F1F" opacity="0.3" filter="url(#dfaHalo)"/><path d="M76.38 312.11H82.62A16.38 16.38 0 0 1 99 328.49V385.43A16.38 16.38 0 0 1 82.62 401.81H76.38A16.38 16.38 0 0 1 60 385.43V328.49A16.38 16.38 0 0 1 76.38 312.11Z" fill="url(#dfaEar)"/><path d="M71.7 339.02H71.7A3.12 3.12 0 0 1 74.82 342.14V371.78A3.12 3.12 0 0 1 71.7 374.9H71.7A3.12 3.12 0 0 1 68.58 371.78V342.14A3.12 3.12 0 0 1 71.7 339.02Z" fill="#FFA62B"/><path d="M428.17 312.11H434.41A16.38 16.38 0 0 1 450.79 328.49V385.43A16.38 16.38 0 0 1 434.41 401.81H428.17A16.38 16.38 0 0 1 411.79 385.43V328.49A16.38 16.38 0 0 1 428.17 312.11Z" fill="url(#dfaEar)"/><path d="M439.09 339.02H439.09A3.12 3.12 0 0 1 442.21 342.14V371.78A3.12 3.12 0 0 1 439.09 374.9H439.09A3.12 3.12 0 0 1 435.97 371.78V342.14A3.12 3.12 0 0 1 439.09 339.02Z" fill="#FFA62B"/><path d="M255.39 91.76H255.39A6.83 6.83 0 0 1 262.22 98.59V190.24A6.83 6.83 0 0 1 255.39 197.06H255.39A6.83 6.83 0 0 1 248.57 190.24V98.59A6.83 6.83 0 0 1 255.39 91.76Z" fill="url(#dfaEar)"/><path d="M247.11 151.68H263.68A8.29 8.29 0 0 1 271.97 159.97V169.92A8.29 8.29 0 0 1 263.68 178.2H247.11A8.29 8.29 0 0 1 238.82 169.92V159.97A8.29 8.29 0 0 1 247.11 151.68Z" fill="url(#dfaEar)"/><path d="M230.93 185.65A48.93 48.93 0 0 1 279.86 185.65L391.52 250.12A48.93 48.93 0 0 1 415.98 292.49L415.98 421.43A48.93 48.93 0 0 1 391.52 463.8L279.86 528.27A48.93 48.93 0 0 1 230.93 528.27L119.27 463.8A48.93 48.93 0 0 1 94.81 421.43L94.81 292.49A48.93 48.93 0 0 1 119.27 250.12Z" fill="url(#dfaFace)"/><path d="M234.74 193.02A41.3 41.3 0 0 1 276.05 193.02L387.04 257.11A41.3 41.3 0 0 1 407.69 292.88L407.69 421.05A41.3 41.3 0 0 1 387.04 456.81L276.05 520.9A41.3 41.3 0 0 1 234.74 520.9L123.75 456.81A41.3 41.3 0 0 1 103.09 421.05L103.09 292.88A41.3 41.3 0 0 1 123.75 257.11Z" fill="none" stroke="#7A5A34" stroke-width="9.75" opacity=".30" filter="url(#dfaSoft)"/><path d="M227.12 178.29A56.55 56.55 0 0 1 283.67 178.29L395.99 243.14A56.55 56.55 0 0 1 424.27 292.11L424.27 421.81A56.55 56.55 0 0 1 395.99 470.79L283.67 535.64A56.55 56.55 0 0 1 227.12 535.64L114.79 470.79A56.55 56.55 0 0 1 86.52 421.81L86.52 292.11A56.55 56.55 0 0 1 114.79 243.14ZM234.74 193.02A41.3 41.3 0 0 1 276.05 193.02L387.04 257.11A41.3 41.3 0 0 1 407.69 292.88L407.69 421.05A41.3 41.3 0 0 1 387.04 456.81L276.05 520.9A41.3 41.3 0 0 1 234.74 520.9L123.75 456.81A41.3 41.3 0 0 1 103.09 421.05L103.09 292.88A41.3 41.3 0 0 1 123.75 257.11Z" fill-rule="evenodd" fill="url(#dfaRing)"/><path d="M142.06 235.44L223.01 188.7" fill="none" stroke="#FFF7DF" stroke-width="3.98" stroke-linecap="round" opacity=".7"/><path d="M199.62 300.41H311.16A64.16 64.16 0 0 1 375.32 364.57V372.76A64.16 64.16 0 0 1 311.16 436.91H199.62A64.16 64.16 0 0 1 135.47 372.76V364.57A64.16 64.16 0 0 1 199.62 300.41Z" fill="#7A5A34" opacity=".30" filter="url(#dfaSoft)"/><path d="M195.72 290.66H315.06A64.16 64.16 0 0 1 379.22 354.82V363.01A64.16 64.16 0 0 1 315.06 427.16H195.72A64.16 64.16 0 0 1 131.57 363.01V354.82A64.16 64.16 0 0 1 195.72 290.66Z" fill="url(#dfaBezel)"/><path d="M196.05 296.12H314.74A59.02 59.02 0 0 1 373.76 355.14V362.68A59.02 59.02 0 0 1 314.74 421.7H196.05A59.02 59.02 0 0 1 137.03 362.68V355.14A59.02 59.02 0 0 1 196.05 296.12Z" fill="url(#dfaVisor)"/><path d="M150.19 341.99A47.71 47.71 0 0 1 189.41 307.89" fill="none" stroke="#fff" stroke-width="5.07" stroke-linecap="round" opacity=".16"/><ellipse cx="193.97" cy="355.01" rx="33.85" ry="38.17" fill="#FF8F1F" opacity=".75" filter="url(#dfaGlow)"/><ellipse cx="316.82" cy="355.01" rx="33.85" ry="38.17" fill="#FF8F1F" opacity=".75" filter="url(#dfaGlow)"/><ellipse cx="193.97" cy="355.01" rx="24.18" ry="28.27" fill="url(#dfaEye)"/><circle cx="185.75" cy="344.27" r="7.25" fill="#FFFDF2"/><circle cx="203.64" cy="366.89" r="3.14" fill="#FFFDF2" opacity=".55"/><ellipse cx="316.82" cy="355.01" rx="24.18" ry="28.27" fill="url(#dfaEye)"/><circle cx="308.6" cy="344.27" r="7.25" fill="#FFFDF2"/><circle cx="326.49" cy="366.89" r="3.14" fill="#FFFDF2" opacity=".55"/><path d="M238.23 396.94Q255.39 414.49 272.55 396.94" fill="none" stroke="#FFD67A" stroke-width="7.41" stroke-linecap="round"/><path d="M197.54 115.14A62.4 21.45 -22 0 1 313.25 68.38" fill="none" stroke="#F26A0D" stroke-width="5.07" stroke-linecap="round" opacity=".8"/><circle cx="255.39" cy="91.76" r="40.44" fill="#FF8F1F" opacity=".55" filter="url(#dfaGlow)"/><circle cx="255.39" cy="91.76" r="23.79" fill="url(#dfaEye)"/><circle cx="247.31" cy="83.2" r="6.42" fill="#FFFDF2" opacity=".95"/><path d="M313.25 68.38A62.4 21.45 -22 0 1 197.54 115.14" fill="none" stroke="url(#dfaOrbit)" stroke-width="5.07" stroke-linecap="round"/><circle cx="313.25" cy="68.38" r="17.61" fill="#FF8F1F" opacity=".6" filter="url(#dfaSoft)"/><circle cx="313.25" cy="68.38" r="8.38" fill="#FFF4C8"/><path d="M531.79 426.96Q529.59 426.96 528.19 425.46Q526.79 423.96 526.79 421.96V291.96Q526.79 289.76 528.19 288.36Q529.59 286.96 531.79 286.96H583.79Q603.39 286.96 617.19 293.26Q630.99 299.56 638.39 311.66Q645.79 323.76 646.39 341.56Q646.59 350.36 646.59 356.96Q646.59 363.56 646.39 372.16Q645.59 390.76 638.49 402.96Q631.39 415.16 617.89 421.06Q604.39 426.96 584.79 426.96ZM562.79 398.16H583.79Q592.39 398.16 598.09 395.46Q603.79 392.76 606.69 386.96Q609.59 381.16 609.79 371.76Q610.19 365.96 610.29 361.36Q610.39 356.76 610.29 352.16Q610.19 347.56 609.79 341.96Q609.39 328.36 602.69 322.06Q595.99 315.76 582.79 315.76H562.79ZM674.99 426.96Q672.79 426.96 671.39 425.46Q669.99 423.96 669.99 421.96V291.96Q669.99 289.76 671.39 288.36Q672.79 286.96 674.99 286.96H766.99Q769.19 286.96 770.59 288.36Q771.99 289.76 771.99 291.96V312.16Q771.99 314.36 770.59 315.76Q769.19 317.16 766.99 317.16H705.19V346.56H762.99Q765.19 346.56 766.59 348.06Q767.99 349.56 767.99 351.76V371.76Q767.99 373.76 766.59 375.26Q765.19 376.76 762.99 376.76H705.19V421.96Q705.19 423.96 703.79 425.46Q702.39 426.96 700.19 426.96ZM829.39 426.96Q827.19 426.96 825.79 425.46Q824.39 423.96 824.39 421.96V318.36H788.79Q786.59 318.36 785.19 316.86Q783.79 315.36 783.79 313.36V291.96Q783.79 289.76 785.19 288.36Q786.59 286.96 788.79 286.96H896.39Q898.59 286.96 899.99 288.36Q901.39 289.76 901.39 291.96V313.36Q901.39 315.36 899.99 316.86Q898.59 318.36 896.39 318.36H860.79V421.96Q860.79 423.96 859.39 425.46Q857.99 426.96 855.79 426.96Z" fill="url(#dfaIvory)"/><path d="M937.82 426.96Q936.22 426.96 934.92 425.66Q933.62 424.36 933.62 422.76Q933.62 421.76 933.82 420.96L980.82 292.56Q981.42 290.36 983.32 288.66Q985.22 286.96 988.62 286.96H1018.22Q1021.62 286.96 1023.52 288.66Q1025.42 290.36 1026.02 292.56L1072.82 420.96Q1073.22 421.76 1073.22 422.76Q1073.22 424.36 1071.92 425.66Q1070.62 426.96 1068.82 426.96H1044.22Q1041.22 426.96 1039.72 425.46Q1038.22 423.96 1037.82 422.76L1030.02 402.36H976.62L969.02 422.76Q968.62 423.96 967.22 425.46Q965.82 426.96 962.42 426.96ZM984.82 373.56H1022.02L1003.42 320.76ZM1136.42 470.96Q1121.02 470.96 1110.92 466.96Q1100.82 462.96 1094.92 457.36Q1089.02 451.76 1086.42 446.26Q1083.82 440.76 1083.62 437.56Q1083.42 435.36 1085.02 433.86Q1086.62 432.36 1088.82 432.36H1114.22Q1116.22 432.36 1117.42 433.36Q1118.62 434.36 1119.42 436.56Q1120.62 438.76 1122.22 441.06Q1123.82 443.36 1126.92 444.96Q1130.02 446.56 1135.42 446.56Q1141.42 446.56 1145.42 444.66Q1149.42 442.76 1151.42 438.46Q1153.42 434.16 1153.42 426.96V413.56Q1148.82 418.56 1141.62 421.66Q1134.42 424.76 1124.22 424.76Q1114.02 424.76 1106.22 421.76Q1098.42 418.76 1093.22 412.76Q1088.02 406.76 1085.12 398.16Q1082.22 389.56 1081.62 378.36Q1081.42 373.16 1081.62 367.76Q1082.22 357.16 1085.02 348.46Q1087.82 339.76 1093.12 333.66Q1098.42 327.56 1106.22 324.26Q1114.02 320.96 1124.22 320.96Q1135.02 320.96 1142.72 325.06Q1150.42 329.16 1155.42 335.36V327.96Q1155.42 325.96 1156.82 324.46Q1158.22 322.96 1160.42 322.96H1183.42Q1185.62 322.96 1187.12 324.46Q1188.62 325.96 1188.62 327.96V424.16Q1188.62 439.36 1182.52 449.76Q1176.42 460.16 1164.72 465.56Q1153.02 470.96 1136.42 470.96ZM1135.02 398.76Q1141.42 398.76 1145.42 395.96Q1149.42 393.16 1151.32 388.76Q1153.22 384.36 1153.42 379.36Q1153.62 377.16 1153.62 373.16Q1153.62 369.16 1153.42 367.16Q1153.22 361.96 1151.32 357.56Q1149.42 353.16 1145.42 350.46Q1141.42 347.76 1135.02 347.76Q1128.42 347.76 1124.52 350.56Q1120.62 353.36 1118.92 358.16Q1117.22 362.96 1116.82 368.76Q1116.62 373.16 1116.82 377.76Q1117.22 383.56 1118.92 388.36Q1120.62 393.16 1124.52 395.96Q1128.42 398.76 1135.02 398.76ZM1260.22 428.96Q1236.62 428.96 1222.62 416.16Q1208.62 403.36 1208.02 378.16V371.16Q1208.62 355.36 1215.12 344.06Q1221.62 332.76 1233.12 326.86Q1244.62 320.96 1260.02 320.96Q1277.62 320.96 1289.12 327.96Q1300.62 334.96 1306.42 346.96Q1312.22 358.96 1312.22 374.36V379.16Q1312.22 381.36 1310.82 382.76Q1309.42 384.16 1307.22 384.16H1243.22V385.56Q1243.42 391.36 1245.32 396.16Q1247.22 400.96 1250.92 403.76Q1254.62 406.56 1260.02 406.56Q1264.02 406.56 1266.72 405.26Q1269.42 403.96 1271.22 402.26Q1273.02 400.56 1274.02 399.36Q1275.82 397.16 1276.92 396.66Q1278.02 396.16 1280.42 396.16H1305.22Q1307.22 396.16 1308.52 397.36Q1309.82 398.56 1309.62 400.56Q1309.42 403.96 1306.22 408.76Q1303.02 413.56 1296.92 418.26Q1290.82 422.96 1281.62 425.96Q1272.42 428.96 1260.22 428.96ZM1243.22 364.36H1277.02V363.96Q1277.02 357.36 1275.12 352.66Q1273.22 347.96 1269.32 345.36Q1265.42 342.76 1260.02 342.76Q1254.82 342.76 1251.02 345.36Q1247.22 347.96 1245.22 352.66Q1243.22 357.36 1243.22 363.96ZM1336.02 426.96Q1333.82 426.96 1332.42 425.46Q1331.02 423.96 1331.02 421.96V327.96Q1331.02 325.76 1332.42 324.36Q1333.82 322.96 1336.02 322.96H1359.02Q1361.22 322.96 1362.72 324.36Q1364.22 325.76 1364.22 327.96V335.56Q1369.22 329.36 1377.62 325.16Q1386.02 320.96 1397.42 320.96Q1409.02 320.96 1417.92 326.16Q1426.82 331.36 1431.92 341.36Q1437.02 351.36 1437.02 366.16V421.96Q1437.02 423.96 1435.62 425.46Q1434.22 426.96 1432.02 426.96H1406.82Q1404.82 426.96 1403.32 425.46Q1401.82 423.96 1401.82 421.96V367.36Q1401.82 357.96 1397.32 352.86Q1392.82 347.76 1384.02 347.76Q1375.82 347.76 1370.92 352.86Q1366.02 357.96 1366.02 367.36V421.96Q1366.02 423.96 1364.52 425.46Q1363.02 426.96 1361.02 426.96ZM1511.82 426.96Q1499.02 426.96 1489.72 422.86Q1480.42 418.76 1475.42 410.06Q1470.42 401.36 1470.42 387.56V349.16H1454.82Q1452.62 349.16 1451.12 347.76Q1449.62 346.36 1449.62 344.16V327.96Q1449.62 325.76 1451.12 324.36Q1452.62 322.96 1454.82 322.96H1470.42V289.96Q1470.42 287.76 1471.92 286.36Q1473.42 284.96 1475.42 284.96H1498.62Q1500.82 284.96 1502.22 286.36Q1503.62 287.76 1503.62 289.96V322.96H1528.62Q1530.82 322.96 1532.32 324.36Q1533.82 325.76 1533.82 327.96V344.16Q1533.82 346.36 1532.32 347.76Q1530.82 349.16 1528.62 349.16H1503.62V384.76Q1503.62 391.56 1506.22 395.56Q1508.82 399.56 1515.02 399.56H1530.42Q1532.62 399.56 1534.02 400.96Q1535.42 402.36 1535.42 404.56V421.96Q1535.42 423.96 1534.02 425.46Q1532.62 426.96 1530.42 426.96Z" fill="url(#dfaWord)"/></svg>
